<svg xmlns="http://www.w3.org/2000/svg" version="1.1" xmlns:xlink="http://www.w3.org/1999/xlink" width="512" height="512" x="0" y="0" viewBox="0 0 512 512" style="enable-background:new 0 0 512 512" xml:space="preserve" class=""><g><path d="m265.523 303.479 132.674 132.655c5.266 5.265 5.266 13.801.001 19.067l-32.822 32.822c-5.265 5.264-13.8 5.265-19.065.001l-90.321-90.302-52.935 52.935-37.365 37.365c-5.265 5.265-13.801 5.265-19.066 0L113.803 455.2c-5.265-5.265-5.265-13.801 0-19.066l89.252-89.252 43.403-43.403c5.264-5.264 13.8-5.265 19.065 0z" style="" fill="#ff497c" data-original="#00d8de" class="" opacity="1"></path><path d="m204.124 345.855 51.887 51.887-19.832 19.833-33.124 33.082-37.365 37.365c-5.265 5.265-13.801 5.265-19.066 0l-32.819-32.819c-5.266-5.266-5.265-13.804.002-19.068l70.483-70.447 19.834-19.833z" style="" fill="#a0c343" data-original="#00a5ff" class="" opacity="1"></path><path d="m204.124 345.855 51.887 51.887-12.604 12.583-51.887-51.887z" style="" fill="#fafafa" data-original="#0087ff" class="" opacity="0"></path><path d="m265.523 165.171 132.674 132.655c5.266 5.265 5.266 13.801.001 19.067l-32.822 32.822c-5.265 5.264-13.8 5.265-19.065.001l-90.321-90.302-52.935 52.935-37.365 37.365c-5.265 5.265-13.801 5.265-19.066 0l-32.821-32.821c-5.265-5.265-5.265-13.801 0-19.066l89.252-89.252 43.403-43.403c5.264-5.265 13.8-5.266 19.065-.001z" style="" fill="#a0c343" data-original="#00a5ff" class="" opacity="1"></path><path d="m204.124 207.547 51.887 51.887-19.832 19.833-33.124 33.082-37.365 37.365c-5.265 5.265-13.801 5.265-19.066 0l-32.819-32.819c-5.266-5.266-5.265-13.804.002-19.068l70.483-70.447 19.834-19.833z" style="" fill="#ff497c" data-original="#00d8de" class="" opacity="1"></path><path d="m204.124 207.547 51.887 51.887-12.604 12.583-51.887-51.887z" style="" fill="#fafafa" data-original="#05c1c1" class="" opacity="0"></path><path d="m265.523 23.977 132.674 132.655c5.266 5.265 5.266 13.801.001 19.067l-32.822 32.821c-5.265 5.265-13.8 5.265-19.065.001L255.99 118.22l-52.935 52.935-37.365 37.365c-5.265 5.265-13.801 5.265-19.066 0l-32.821-32.821c-5.265-5.265-5.265-13.801 0-19.066l89.252-89.252 43.403-43.403c5.264-5.265 13.8-5.265 19.065-.001z" style="" fill="#ff497c" data-original="#00d8de" class="" opacity="1"></path><path d="m204.124 66.354 51.887 51.887-19.832 19.833-33.124 33.082-37.365 37.364c-5.265 5.265-13.801 5.265-19.066 0l-32.819-32.819c-5.266-5.266-5.265-13.804.002-19.068l70.483-70.447 19.834-19.832z" style="" fill="#a0c343" data-original="#00a5ff" class="" opacity="1"></path><path d="m204.124 66.354 51.887 51.887-12.604 12.582-51.887-51.887z" style="" fill="#fafafa" data-original="#0087ff" class="" opacity="0"></path><path d="M494.011 488.583a7.5 7.5 0 0 0-7.5 7.5v8.417c0 4.142 3.357 7.5 7.5 7.5s7.5-3.358 7.5-7.5v-8.417a7.5 7.5 0 0 0-7.5-7.5zM449.738 488.583a7.5 7.5 0 0 0-7.5 7.5v8.417c0 4.142 3.357 7.5 7.5 7.5s7.5-3.358 7.5-7.5v-8.417a7.5 7.5 0 0 0-7.5-7.5zM405.466 488.583a7.5 7.5 0 0 0-7.5 7.5v8.417c0 4.142 3.357 7.5 7.5 7.5s7.5-3.358 7.5-7.5v-8.417a7.5 7.5 0 0 0-7.5-7.5z" style="" fill="#fafafa" data-original="#05c1c1" class="" opacity="0"></path><path d="M114.034 15.917V7.5c0-4.142-3.357-7.5-7.5-7.5s-7.5 3.358-7.5 7.5v8.417c0 4.142 3.357 7.5 7.5 7.5s7.5-3.358 7.5-7.5zM62.262 0a7.5 7.5 0 0 0-7.5 7.5v8.417c0 4.142 3.357 7.5 7.5 7.5s7.5-3.358 7.5-7.5V7.5a7.5 7.5 0 0 0-7.5-7.5zM17.989 0a7.5 7.5 0 0 0-7.5 7.5v8.417c0 4.142 3.357 7.5 7.5 7.5s7.5-3.358 7.5-7.5V7.5a7.5 7.5 0 0 0-7.5-7.5z" style="" fill="#fafafa" data-original="#0087ff" class="" opacity="0"></path></g></svg>